<?xml version="1.0" encoding="UTF-8"?>
<!--
  O2 Helpdesk - SVG Icon Sprite
  All icons used in the animation system
  Usage: <svg><use href="o2-helpdesk-icons.svg#icon-name"/></svg>
-->
<svg xmlns="http://www.w3.org/2000/svg" xmlns:xlink="http://www.w3.org/1999/xlink">
  <defs>
    <style>
      .icon { fill: currentColor; }
    </style>
  </defs>

  <!-- Phone Icon -->
  <symbol id="icon-phone" viewBox="0 0 24 24">
    <path d="M6.62 10.79c1.44 2.83 3.76 5.14 6.59 6.59l2.2-2.2c.27-.27.67-.36 1.02-.24 1.12.37 2.33.57 3.57.57.55 0 1 .45 1 1V20c0 .55-.45 1-1 1-9.39 0-17-7.61-17-17 0-.55.45-1 1-1h3.5c.55 0 1 .45 1 1 0 1.25.2 2.45.57 3.57.11.35.03.74-.25 1.02l-2.2 2.2z"/>
  </symbol>

  <!-- Chat Bubble Icon -->
  <symbol id="icon-chat" viewBox="0 0 24 24">
    <path d="M20 2H4c-1.1 0-2 .9-2 2v18l4-4h14c1.1 0 2-.9 2-2V4c0-1.1-.9-2-2-2zm0 14H6l-2 2V4h16v12z"/>
  </symbol>

  <!-- Checkmark Icon -->
  <symbol id="icon-check" viewBox="0 0 24 24">
    <path d="M9 16.17L4.83 12l-1.42 1.41L9 19 21 7l-1.41-1.41z"/>
  </symbol>

  <!-- Checkmark Circle Icon -->
  <symbol id="icon-check-circle" viewBox="0 0 24 24">
    <circle cx="12" cy="12" r="10" fill="none" stroke="currentColor" stroke-width="2"/>
    <path d="M9 12l2 2 4-4" fill="none" stroke="currentColor" stroke-width="2" stroke-linecap="round" stroke-linejoin="round"/>
  </symbol>

  <!-- Credit Card / Billing Icon -->
  <symbol id="icon-billing" viewBox="0 0 24 24">
    <rect x="2" y="4" width="20" height="16" rx="2" fill="none" stroke="currentColor" stroke-width="2"/>
    <line x1="2" y1="10" x2="22" y2="10" stroke="currentColor" stroke-width="2"/>
    <line x1="6" y1="14" x2="10" y2="14" stroke="currentColor" stroke-width="2"/>
  </symbol>

  <!-- Technical Support / Wrench Icon -->
  <symbol id="icon-tech" viewBox="0 0 24 24">
    <path d="M22.7 2.3a1 1 0 0 0-1.4 0l-4.5 4.5a1 1 0 0 0 0 1.4l1.4 1.4a1 1 0 0 0 1.4 0l4.5-4.5a1 1 0 0 0 0-1.4l-1.4-1.4z"/>
    <path d="M14.5 7.5L5 17l-2 2-1 3 3-1 2-2 9.5-9.5-2-2z" fill="none" stroke="currentColor" stroke-width="2" stroke-linejoin="round"/>
  </symbol>

  <!-- Smartphone Icon -->
  <symbol id="icon-phone-device" viewBox="0 0 24 24">
    <rect x="5" y="2" width="14" height="20" rx="2" fill="none" stroke="currentColor" stroke-width="2"/>
    <line x1="12" y1="18" x2="12" y2="18.01" stroke="currentColor" stroke-width="2"/>
  </symbol>

  <!-- Upgrade / Arrow Up Icon -->
  <symbol id="icon-upgrade" viewBox="0 0 24 24">
    <rect x="5" y="2" width="14" height="20" rx="2" fill="none" stroke="currentColor" stroke-width="2"/>
    <path d="M12 8l-4 4h3v6h2v-6h3l-4-4z" fill="currentColor"/>
  </symbol>

  <!-- Shield / Security Icon -->
  <symbol id="icon-shield" viewBox="0 0 24 24">
    <path d="M12 2L4 5v6.09c0 5.05 3.41 9.76 8 10.91 4.59-1.15 8-5.86 8-10.91V5l-8-3z" fill="none" stroke="currentColor" stroke-width="2"/>
  </symbol>

  <!-- Shield Check Icon -->
  <symbol id="icon-shield-check" viewBox="0 0 24 24">
    <path d="M12 2L4 5v6.09c0 5.05 3.41 9.76 8 10.91 4.59-1.15 8-5.86 8-10.91V5l-8-3z" fill="none" stroke="currentColor" stroke-width="2"/>
    <path d="M9 12l2 2 4-4" fill="none" stroke="currentColor" stroke-width="2" stroke-linecap="round" stroke-linejoin="round"/>
  </symbol>

  <!-- Question Mark / Enquiry Icon -->
  <symbol id="icon-question" viewBox="0 0 24 24">
    <circle cx="12" cy="12" r="10" fill="none" stroke="currentColor" stroke-width="2"/>
    <path d="M9.09 9a3 3 0 015.83 1c0 2-3 3-3 3" fill="none" stroke="currentColor" stroke-width="2" stroke-linecap="round"/>
    <line x1="12" y1="17" x2="12.01" y2="17" stroke="currentColor" stroke-width="2" stroke-linecap="round"/>
  </symbol>

  <!-- Device Support Icon -->
  <symbol id="icon-device" viewBox="0 0 24 24">
    <rect x="6" y="3" width="12" height="18" rx="2" fill="none" stroke="currentColor" stroke-width="2"/>
    <line x1="12" y1="17" x2="12" y2="17.01" stroke="currentColor" stroke-width="2"/>
    <circle cx="12" cy="7" r="1" fill="currentColor"/>
    <path d="M9 11h6" stroke="currentColor" stroke-width="2" stroke-linecap="round"/>
    <path d="M9 14h4" stroke="currentColor" stroke-width="2" stroke-linecap="round"/>
  </symbol>

  <!-- Star Icon -->
  <symbol id="icon-star" viewBox="0 0 24 24">
    <path d="M12 17.27L18.18 21l-1.64-7.03L22 9.24l-7.19-.61L12 2 9.19 8.63 2 9.24l5.46 4.73L5.82 21z"/>
  </symbol>

  <!-- Quote Mark Icon -->
  <symbol id="icon-quote" viewBox="0 0 24 24">
    <path d="M6 17h3l2-4V7H5v6h3zm8 0h3l2-4V7h-6v6h3z"/>
  </symbol>

  <!-- Users / Customers Icon -->
  <symbol id="icon-users" viewBox="0 0 24 24">
    <path d="M16 11c1.66 0 2.99-1.34 2.99-3S17.66 5 16 5c-1.66 0-3 1.34-3 3s1.34 3 3 3zm-8 0c1.66 0 2.99-1.34 2.99-3S9.66 5 8 5C6.34 5 5 6.34 5 8s1.34 3 3 3zm0 2c-2.33 0-7 1.17-7 3.5V19h14v-2.5c0-2.33-4.67-3.5-7-3.5zm8 0c-.29 0-.62.02-.97.05 1.16.84 1.97 1.97 1.97 3.45V19h6v-2.5c0-2.33-4.67-3.5-7-3.5z"/>
  </symbol>

  <!-- Clock / Time Icon -->
  <symbol id="icon-clock" viewBox="0 0 24 24">
    <circle cx="12" cy="12" r="10" fill="none" stroke="currentColor" stroke-width="2"/>
    <polyline points="12 6 12 12 16 14" fill="none" stroke="currentColor" stroke-width="2" stroke-linecap="round" stroke-linejoin="round"/>
  </symbol>

  <!-- Lock Icon -->
  <symbol id="icon-lock" viewBox="0 0 24 24">
    <rect x="5" y="11" width="14" height="10" rx="2" fill="none" stroke="currentColor" stroke-width="2"/>
    <circle cx="12" cy="16" r="1" fill="currentColor"/>
    <path d="M8 11V7a4 4 0 018 0v4" fill="none" stroke="currentColor" stroke-width="2"/>
  </symbol>

  <!-- Email Icon -->
  <symbol id="icon-email" viewBox="0 0 24 24">
    <path d="M4 4h16c1.1 0 2 .9 2 2v12c0 1.1-.9 2-2 2H4c-1.1 0-2-.9-2-2V6c0-1.1.9-2 2-2z" fill="none" stroke="currentColor" stroke-width="2"/>
    <polyline points="22,6 12,13 2,6" fill="none" stroke="currentColor" stroke-width="2"/>
  </symbol>

  <!-- Support Headset Icon -->
  <symbol id="icon-headset" viewBox="0 0 24 24">
    <path d="M12 2a7 7 0 00-7 7v5a2 2 0 002 2h1a1 1 0 001-1v-4a1 1 0 00-1-1H7V9a5 5 0 0110 0v1h-1a1 1 0 00-1 1v4a1 1 0 001 1h1a2 2 0 002-2V9a7 7 0 00-7-7z" fill="none" stroke="currentColor" stroke-width="2"/>
    <path d="M10 18v1a2 2 0 004 0v-1" fill="none" stroke="currentColor" stroke-width="2" stroke-linecap="round"/>
  </symbol>

  <!-- Settings / Gear Icon -->
  <symbol id="icon-settings" viewBox="0 0 24 24">
    <circle cx="12" cy="12" r="3" fill="none" stroke="currentColor" stroke-width="2"/>
    <path d="M19.4 15a1.65 1.65 0 00.33 1.82l.06.06a2 2 0 010 2.83 2 2 0 01-2.83 0l-.06-.06a1.65 1.65 0 00-1.82-.33 1.65 1.65 0 00-1 1.51V21a2 2 0 01-2 2 2 2 0 01-2-2v-.09A1.65 1.65 0 009 19.4a1.65 1.65 0 00-1.82.33l-.06.06a2 2 0 01-2.83 0 2 2 0 010-2.83l.06-.06a1.65 1.65 0 00.33-1.82 1.65 1.65 0 00-1.51-1H3a2 2 0 01-2-2 2 2 0 012-2h.09A1.65 1.65 0 004.6 9a1.65 1.65 0 00-.33-1.82l-.06-.06a2 2 0 010-2.83 2 2 0 012.83 0l.06.06a1.65 1.65 0 001.82.33H9a1.65 1.65 0 001-1.51V3a2 2 0 012-2 2 2 0 012 2v.09a1.65 1.65 0 001 1.51 1.65 1.65 0 001.82-.33l.06-.06a2 2 0 012.83 0 2 2 0 010 2.83l-.06.06a1.65 1.65 0 00-.33 1.82V9a1.65 1.65 0 001.51 1H21a2 2 0 012 2 2 2 0 01-2 2h-.09a1.65 1.65 0 00-1.51 1z" fill="none" stroke="currentColor" stroke-width="2"/>
  </symbol>

  <!-- Arrow Right Icon -->
  <symbol id="icon-arrow-right" viewBox="0 0 24 24">
    <line x1="5" y1="12" x2="19" y2="12" stroke="currentColor" stroke-width="2" stroke-linecap="round"/>
    <polyline points="12 5 19 12 12 19" fill="none" stroke="currentColor" stroke-width="2" stroke-linecap="round" stroke-linejoin="round"/>
  </symbol>

  <!-- Arrow Down Icon -->
  <symbol id="icon-arrow-down" viewBox="0 0 24 24">
    <line x1="12" y1="5" x2="12" y2="19" stroke="currentColor" stroke-width="2" stroke-linecap="round"/>
    <polyline points="19 12 12 19 5 12" fill="none" stroke="currentColor" stroke-width="2" stroke-linecap="round" stroke-linejoin="round"/>
  </symbol>

  <!-- Menu / Hamburger Icon -->
  <symbol id="icon-menu" viewBox="0 0 24 24">
    <line x1="3" y1="6" x2="21" y2="6" stroke="currentColor" stroke-width="2" stroke-linecap="round"/>
    <line x1="3" y1="12" x2="21" y2="12" stroke="currentColor" stroke-width="2" stroke-linecap="round"/>
    <line x1="3" y1="18" x2="21" y2="18" stroke="currentColor" stroke-width="2" stroke-linecap="round"/>
  </symbol>

  <!-- Close / X Icon -->
  <symbol id="icon-close" viewBox="0 0 24 24">
    <line x1="18" y1="6" x2="6" y2="18" stroke="currentColor" stroke-width="2" stroke-linecap="round"/>
    <line x1="6" y1="6" x2="18" y2="18" stroke="currentColor" stroke-width="2" stroke-linecap="round"/>
  </symbol>

  <!-- Search Icon -->
  <symbol id="icon-search" viewBox="0 0 24 24">
    <circle cx="11" cy="11" r="8" fill="none" stroke="currentColor" stroke-width="2"/>
    <line x1="21" y1="21" x2="16.65" y2="16.65" stroke="currentColor" stroke-width="2" stroke-linecap="round"/>
  </symbol>

  <!-- Heart / Like Icon -->
  <symbol id="icon-heart" viewBox="0 0 24 24">
    <path d="M20.84 4.61a5.5 5.5 0 00-7.78 0L12 5.67l-1.06-1.06a5.5 5.5 0 00-7.78 7.78l1.06 1.06L12 21.23l7.78-7.78 1.06-1.06a5.5 5.5 0 000-7.78z" fill="none" stroke="currentColor" stroke-width="2" stroke-linecap="round" stroke-linejoin="round"/>
  </symbol>

  <!-- Thumbs Up Icon -->
  <symbol id="icon-thumbs-up" viewBox="0 0 24 24">
    <path d="M14 9V5a3 3 0 00-3-3l-4 9v11h11.28a2 2 0 002-1.7l1.38-9a2 2 0 00-2-2.3zM7 22H4a2 2 0 01-2-2v-7a2 2 0 012-2h3" fill="none" stroke="currentColor" stroke-width="2" stroke-linecap="round" stroke-linejoin="round"/>
  </symbol>

  <!-- Notification Bell Icon -->
  <symbol id="icon-bell" viewBox="0 0 24 24">
    <path d="M18 8A6 6 0 006 8c0 7-3 9-3 9h18s-3-2-3-9" fill="none" stroke="currentColor" stroke-width="2" stroke-linecap="round" stroke-linejoin="round"/>
    <path d="M13.73 21a2 2 0 01-3.46 0" fill="none" stroke="currentColor" stroke-width="2" stroke-linecap="round" stroke-linejoin="round"/>
  </symbol>

  <!-- Calendar Icon -->
  <symbol id="icon-calendar" viewBox="0 0 24 24">
    <rect x="3" y="4" width="18" height="18" rx="2" fill="none" stroke="currentColor" stroke-width="2"/>
    <line x1="16" y1="2" x2="16" y2="6" stroke="currentColor" stroke-width="2" stroke-linecap="round"/>
    <line x1="8" y1="2" x2="8" y2="6" stroke="currentColor" stroke-width="2" stroke-linecap="round"/>
    <line x1="3" y1="10" x2="21" y2="10" stroke="currentColor" stroke-width="2" stroke-linecap="round"/>
  </symbol>

  <!-- Location / Map Pin Icon -->
  <symbol id="icon-location" viewBox="0 0 24 24">
    <path d="M21 10c0 7-9 13-9 13s-9-6-9-13a9 9 0 0118 0z" fill="none" stroke="currentColor" stroke-width="2"/>
    <circle cx="12" cy="10" r="3" fill="none" stroke="currentColor" stroke-width="2"/>
  </symbol>

  <!-- WiFi Icon -->
  <symbol id="icon-wifi" viewBox="0 0 24 24">
    <path d="M5 12.55a11 11 0 0114.08 0" fill="none" stroke="currentColor" stroke-width="2" stroke-linecap="round"/>
    <path d="M1.42 9a16 16 0 0121.16 0" fill="none" stroke="currentColor" stroke-width="2" stroke-linecap="round"/>
    <path d="M8.53 16.11a6 6 0 016.95 0" fill="none" stroke="currentColor" stroke-width="2" stroke-linecap="round"/>
    <line x1="12" y1="20" x2="12.01" y2="20" stroke="currentColor" stroke-width="2" stroke-linecap="round"/>
  </symbol>

  <!-- Signal Icon -->
  <symbol id="icon-signal" viewBox="0 0 24 24">
    <path d="M2 20h2v-8H2v8zm6 0h2V8H8v12zm6 0h2V4h-2v16zm6 0h2v-6h-2v6z" fill="currentColor"/>
  </symbol>

  <!-- Battery Icon -->
  <symbol id="icon-battery" viewBox="0 0 24 24">
    <rect x="2" y="7" width="18" height="10" rx="2" fill="none" stroke="currentColor" stroke-width="2"/>
    <line x1="22" y1="11" x2="22" y2="13" stroke="currentColor" stroke-width="2" stroke-linecap="round"/>
  </symbol>

  <!-- Info Icon -->
  <symbol id="icon-info" viewBox="0 0 24 24">
    <circle cx="12" cy="12" r="10" fill="none" stroke="currentColor" stroke-width="2"/>
    <line x1="12" y1="16" x2="12" y2="12" stroke="currentColor" stroke-width="2" stroke-linecap="round"/>
    <line x1="12" y1="8" x2="12.01" y2="8" stroke="currentColor" stroke-width="2" stroke-linecap="round"/>
  </symbol>

  <!-- Warning / Alert Icon -->
  <symbol id="icon-warning" viewBox="0 0 24 24">
    <path d="M10.29 3.86L1.82 18a2 2 0 001.71 3h16.94a2 2 0 001.71-3L13.71 3.86a2 2 0 00-3.42 0z" fill="none" stroke="currentColor" stroke-width="2" stroke-linecap="round" stroke-linejoin="round"/>
    <line x1="12" y1="9" x2="12" y2="13" stroke="currentColor" stroke-width="2" stroke-linecap="round"/>
    <line x1="12" y1="17" x2="12.01" y2="17" stroke="currentColor" stroke-width="2" stroke-linecap="round"/>
  </symbol>

</svg>
